<?xml version="1.0" standalone="no"?>
<!DOCTYPE svg PUBLIC "-//W3C//DTD SVG 20010904//EN"
 "http://www.w3.org/TR/2001/REC-SVG-20010904/DTD/svg10.dtd">
<svg version="1.0" xmlns="http://www.w3.org/2000/svg"
 width="560.000000pt" height="530.000000pt" viewBox="0 0 560.000000 530.000000"
 preserveAspectRatio="xMidYMid meet">

<g transform="translate(0.000000,530.000000) scale(0.100000,-0.100000)"
fill="#000000" stroke="none">
<path d="M1366 4969 c-113 -27 -224 -121 -279 -237 l-32 -67 0 -2000 c0 -1912
1 -2002 18 -2052 39 -110 134 -207 257 -259 43 -18 89 -19 1320 -22 846 -2
1291 1 1323 8 80 17 158 60 218 119 65 65 104 142 118 232 13 74 15 2209 4
2209 -5 -1 -37 -9 -73 -19 l-65 -18 -5 -1074 -5 -1074 -33 -67 c-34 -70 -71
-105 -150 -141 -42 -19 -68 -22 -236 -25 l-189 -4 7 94 c9 124 29 249 62 383
31 130 41 297 25 405 -9 60 -59 291 -77 359 -6 21 -34 -6 -34 -33 0 -12 13
-73 29 -136 62 -240 64 -368 11 -605 -35 -157 -60 -321 -60 -407 l0 -58 -866
0 -865 0 5 42 c14 101 47 388 66 568 11 107 29 282 41 388 11 105 17 197 14
202 -5 9 -35 15 -35 7 0 -16 -94 -892 -110 -1017 -11 -91 -20 -171 -20 -177 0
-10 -34 -13 -135 -13 -247 0 -320 34 -389 180 l-31 65 0 1930 0 1930 29 63
c19 41 46 78 78 107 90 80 -9 75 1373 75 1358 0 1289 3 1377 -63 30 -22 54
-54 78 -102 l35 -69 3 -302 3 -301 57 23 c31 13 65 24 75 24 16 0 17 20 17
268 0 151 -5 294 -11 328 -25 134 -112 248 -236 307 l-68 32 -1300 2 c-763 1
-1316 -3 -1339 -8z"/>
<path d="M2445 4465 c-203 -45 -350 -189 -420 -413 -25 -79 -32 -89 -116 -178
-133 -139 -148 -187 -125 -390 12 -100 0 -129 -99 -234 -116 -121 -138 -168
-143 -297 -4 -92 -2 -106 21 -155 41 -87 41 -87 157 -103 362 -49 573 -76 575
-73 2 2 4 84 6 183 2 166 0 184 -20 227 -11 25 -24 68 -27 95 -10 72 -19 85
-58 78 -42 -8 -109 18 -140 56 -13 16 -29 50 -35 77 -31 147 104 254 219 172
l31 -22 31 28 c34 32 92 148 102 205 l6 36 93 6 c54 3 118 15 155 27 117 41
220 137 253 237 l11 35 24 -52 c53 -114 172 -197 337 -236 l77 -18 -1 -60 c0
-34 -4 -167 -9 -296 -7 -204 -12 -249 -35 -340 -33 -127 -61 -182 -134 -260
-99 -104 -242 -148 -423 -128 -86 9 -115 19 -190 69 -47 31 -58 36 -68 24 -9
-11 -3 -22 26 -55 44 -48 98 -82 180 -111 97 -35 202 -31 574 23 367 53 342
43 394 153 53 110 42 235 -29 339 -87 128 -96 165 -66 288 36 148 29 190 -50
321 -26 43 -59 108 -73 145 -13 37 -43 116 -65 175 -85 230 -230 371 -432 421
-84 21 -423 21 -514 1z"/>
<path d="M4543 4043 c104 -2 270 -2 370 0 100 1 16 2 -188 2 -203 0 -285 -1
-182 -2z"/>
<path d="M5108 4033 c6 -2 18 -2 25 0 6 3 1 5 -13 5 -14 0 -19 -2 -12 -5z"/>
<path d="M5160 4022 c8 -5 26 -13 40 -16 17 -5 20 -4 10 2 -8 5 -26 13 -40 16
-17 5 -20 4 -10 -2z"/>
<path d="M5230 3996 c0 -2 16 -13 36 -25 19 -12 32 -16 29 -11 -7 11 -65 43
-65 36z"/>
<path d="M4097 3928 c-29 -29 -35 -37 -13 -17 23 20 52 43 66 53 13 9 19 16
13 16 -7 0 -36 -24 -66 -52z"/>
<path d="M5340 3915 c19 -19 36 -35 39 -35 3 0 -10 16 -29 35 -19 19 -36 35
-39 35 -3 0 10 -16 29 -35z"/>
<path d="M4022 3847 c-17 -20 -62 -120 -62 -137 0 -8 11 11 24 43 13 31 31 68
40 82 17 26 16 34 -2 12z"/>
<path d="M5410 3820 c6 -11 13 -20 16 -20 2 0 0 9 -6 20 -6 11 -13 20 -16 20
-2 0 0 -9 6 -20z"/>
<path d="M5462 3685 c0 -16 2 -22 5 -12 2 9 2 23 0 30 -3 6 -5 -1 -5 -18z"/>
<path d="M2647 3689 c-68 -11 -112 -48 -88 -72 7 -7 30 -4 70 8 36 11 70 15
88 11 15 -4 38 -10 50 -13 28 -7 42 22 22 43 -19 19 -95 31 -142 23z"/>
<path d="M3062 3680 c-12 -5 -25 -17 -29 -25 -10 -29 10 -35 69 -23 53 11 61
10 107 -11 86 -41 116 4 31 47 -47 23 -134 29 -178 12z"/>
<path d="M3952 3670 c0 -14 2 -19 5 -12 2 6 2 18 0 25 -3 6 -5 1 -5 -13z"/>
<path d="M3944 3510 c0 -58 1 -81 3 -52 2 28 2 76 0 105 -2 28 -3 5 -3 -53z"/>
<path d="M4467 3580 c7 -8 16 -27 22 -40 6 -17 10 -19 10 -8 1 9 -9 27 -21 40
-13 13 -18 17 -11 8z"/>
<path d="M4959 3583 c-13 -16 -12 -17 4 -4 16 13 21 21 13 21 -2 0 -10 -8 -17
-17z"/>
<path d="M5120 3568 c11 -18 20 -47 20 -64 0 -35 -31 -81 -64 -94 -15 -6 -17
-9 -5 -9 28 -1 79 65 79 102 0 28 -32 97 -45 97 -2 0 4 -15 15 -32z"/>
<path d="M4801 3568 c7 -13 16 -36 20 -53 6 -25 7 -26 8 -7 1 22 -24 82 -35
82 -2 0 1 -10 7 -22z"/>
<path d="M2640 3461 c-23 -45 -5 -81 41 -81 30 0 59 23 59 46 0 34 -20 54 -55
54 -24 0 -38 -6 -45 -19z"/>
<path d="M2913 3463 c-4 -10 8 -57 26 -108 19 -49 36 -102 38 -117 5 -28 1
-31 -62 -40 -32 -5 -24 -33 11 -36 42 -4 82 13 95 42 9 20 4 42 -31 137 -23
63 -44 120 -46 127 -5 18 -24 15 -31 -5z"/>
<path d="M3096 3464 c-23 -22 -20 -71 3 -84 70 -37 126 31 65 79 -32 25 -47
26 -68 5z"/>
<path d="M4470 3441 c-5 -11 -19 -23 -31 -26 -11 -4 -18 -9 -16 -12 9 -8 46
16 57 37 6 11 8 20 6 20 -3 0 -10 -9 -16 -19z"/>
<path d="M4794 3439 c-3 -6 -20 -17 -38 -25 -17 -7 -23 -13 -14 -14 16 0 81
49 66 50 -4 0 -10 -5 -14 -11z"/>
<path d="M4337 3409 c7 -7 15 -10 18 -7 3 3 -2 9 -12 12 -14 6 -15 5 -6 -5z"/>
<path d="M4660 3414 c0 -7 52 -25 57 -20 2 2 -10 8 -26 14 -17 6 -31 9 -31 6z"/>
<path d="M4985 3411 c6 -5 24 -13 40 -17 39 -9 30 0 -15 15 -19 6 -30 7 -25 2z"/>
<path d="M4378 3393 c6 -2 18 -2 25 0 6 3 1 5 -13 5 -14 0 -19 -2 -12 -5z"/>
<path d="M3952 3365 c0 -16 2 -22 5 -12 2 9 2 23 0 30 -3 6 -5 -1 -5 -18z"/>
<path d="M3970 3296 c0 -11 40 -86 45 -86 3 0 -4 19 -16 43 -23 45 -29 54 -29
43z"/>
<path d="M4041 3158 c12 -24 25 -65 29 -93 7 -49 8 -49 9 -10 1 36 -39 145
-54 145 -3 0 4 -19 16 -42z"/>
<path d="M5339 3133 l-34 -38 38 34 c34 33 42 41 34 41 -2 0 -19 -17 -38 -37z"/>
<path d="M2763 3084 c-11 -30 11 -68 51 -88 74 -36 176 -31 176 9 0 10 -11 15
-35 15 -18 0 -57 5 -85 11 -40 9 -53 17 -65 40 -17 32 -32 37 -42 13z"/>
<path d="M4048 2970 c-9 -16 -35 -40 -57 -54 -23 -15 -41 -31 -41 -36 0 -6 9
-2 19 8 11 9 31 25 45 35 27 19 62 64 55 72 -3 2 -12 -9 -21 -25z"/>
<path d="M4948 2993 c7 -3 16 -2 19 1 4 3 -2 6 -13 5 -11 0 -14 -3 -6 -6z"/>
<path d="M5033 2993 c9 -2 25 -2 35 0 9 3 1 5 -18 5 -19 0 -27 -2 -17 -5z"/>
<path d="M4115 2860 l-30 -8 27 -1 c15 0 30 4 33 9 3 6 5 9 3 9 -2 -1 -16 -5
-33 -9z"/>
<path d="M3998 2853 c7 -3 16 -2 19 1 4 3 -2 6 -13 5 -11 0 -14 -3 -6 -6z"/>
</g>
</svg>
